<svg width="232" height="307" viewBox="0 0 232 307" fill="none" xmlns="http://www.w3.org/2000/svg">
<path d="M201.773 189.721L171.855 172.998L116.002 205.236L116.002 239.847L201.773 189.721Z" fill="url(#paint0_linear_2003_81)"/>
<path d="M115.997 239.846L116.121 205.256L60.1364 172.994L30.3591 189.975L115.997 239.846Z" fill="url(#paint1_linear_2003_81)"/>
<path d="M231.663 73.6372L201.639 90.9713L115.867 41.4509L116.006 6.86271L231.663 73.6372Z" fill="#4277FF"/>
<path d="M0.337097 207.149L30.363 189.963L115.994 239.268L115.994 273.861L0.337097 207.149Z" fill="#467AFF"/>
<path d="M231.663 207.125L201.639 189.791L201.639 90.75L231.663 73.576L231.663 207.125Z" fill="#6893FF"/>
<path d="M0.337097 73.6006L30.3607 90.9347L30.3607 189.976L0.337106 207.15L0.337097 73.6006Z" fill="#6893FF"/>
<path d="M116.006 273.899L116.006 239.231L201.644 189.787L231.663 207.125L116.006 273.899Z" fill="#5787FF"/>
<path d="M115.994 6.86279L115.994 41.5311L30.2219 91.0515L0.33703 73.6373L115.994 6.86279Z" fill="#4277FF"/>
<path d="M116 205.25L60.1413 173L60.1413 32.25L116 -4.88332e-06L171.859 32.25L171.859 173L116 205.25Z" fill="url(#paint2_linear_2003_81)"/>
<path d="M73.2714 141.83H79.6514C79.6127 141.037 79.3227 140.37 78.7814 139.829C78.2594 139.288 77.486 139.017 76.4614 139.017C75.5334 139.017 74.7794 139.307 74.1994 139.887C73.6194 140.467 73.31 141.115 73.2714 141.83ZM80.0284 145.542L83.2474 146.499C82.8607 147.814 82.097 148.896 80.9564 149.747C79.835 150.598 78.4334 151.023 76.7514 151.023C74.702 151.023 72.962 150.337 71.5314 148.964C70.1007 147.572 69.3854 145.716 69.3854 143.396C69.3854 141.192 70.0814 139.394 71.4734 138.002C72.8654 136.591 74.5087 135.885 76.4034 135.885C78.6074 135.885 80.328 136.542 81.5654 137.857C82.822 139.172 83.4504 140.979 83.4504 143.28C83.4504 143.435 83.4407 143.609 83.4214 143.802C83.4214 143.995 83.4214 144.15 83.4214 144.266L83.3924 144.469H73.1844C73.223 145.397 73.5904 146.17 74.2864 146.789C74.9824 147.408 75.8137 147.717 76.7804 147.717C78.4237 147.717 79.5064 146.992 80.0284 145.542ZM96.0867 151.023C93.1287 151.023 90.6347 150.037 88.6047 148.065C86.5747 146.093 85.5597 143.512 85.5597 140.322C85.5597 137.151 86.5843 134.57 88.6337 132.579C90.7023 130.588 93.1673 129.592 96.0287 129.592C98.658 129.592 100.765 130.259 102.351 131.593C103.955 132.927 104.99 134.532 105.454 136.407L101.684 137.596C101.394 136.436 100.785 135.46 99.8567 134.667C98.9287 133.855 97.6527 133.449 96.0287 133.449C94.3467 133.449 92.8677 134.048 91.5917 135.247C90.335 136.446 89.7067 138.137 89.7067 140.322C89.7067 142.41 90.3253 144.063 91.5627 145.281C92.8193 146.499 94.3273 147.108 96.0867 147.108C97.6913 147.108 98.9673 146.692 99.9147 145.861C100.881 145.03 101.529 144.044 101.858 142.903L105.599 144.034C105.386 144.865 105.038 145.677 104.555 146.47C104.091 147.263 103.482 148.007 102.728 148.703C101.974 149.399 101.017 149.96 99.8567 150.385C98.716 150.81 97.4593 151.023 96.0867 151.023ZM123.836 133.826H117.34V150.588H113.309V133.826H106.813V130.027H123.836V133.826ZM143.647 150.588H139.616V142.062H130.655V150.588H126.653V130.027H130.655V138.292H139.616V130.027H143.647V150.588ZM152.377 139.394H155.538C156.524 139.394 157.307 139.133 157.887 138.611C158.467 138.07 158.757 137.354 158.757 136.465C158.757 135.556 158.467 134.841 157.887 134.319C157.326 133.778 156.543 133.507 155.538 133.507H152.377V139.394ZM156.031 142.845H152.348V150.588H148.346V130.027H156.031C158.042 130.027 159.666 130.626 160.903 131.825C162.16 133.024 162.788 134.561 162.788 136.436C162.788 138.311 162.16 139.848 160.903 141.047C159.666 142.246 158.042 142.845 156.031 142.845Z" fill="white"/>
<path d="M116 273.861L167.359 303.513C169.359 304.668 171.859 303.225 171.859 300.915V241.736L116 273.861L60.1413 241.736L60.1413 300.915C60.1413 303.225 62.6413 304.668 64.6413 303.513L116 273.861Z" fill="url(#paint3_linear_2003_81)"/>
<path fill-rule="evenodd" clip-rule="evenodd" d="M114.972 44.5811C115.358 44.3943 115.808 44.3949 116.193 44.5825L121.349 47.096C125.355 49.0483 129.751 50.0817 134.213 50.1195L137.858 50.1503C138.624 50.1568 139.242 50.7798 139.242 51.5461V74.2598C139.242 87.7644 129.994 99.5271 116.824 102.8L115.919 103.025C115.698 103.08 115.468 103.08 115.247 103.026L114.241 102.777C101.052 99.5186 91.7834 87.7467 91.7834 74.2269V51.4581C91.7834 50.6872 92.4084 50.0622 93.1793 50.0622H96.7848C101.309 50.0622 105.774 49.0381 109.84 47.068L114.972 44.5811ZM115.579 47.3892L111.057 49.5802C106.611 51.7345 101.73 52.8539 96.7848 52.8539H94.5751V74.2269C94.5751 86.4518 102.957 97.1137 114.91 100.067L115.581 100.233L116.151 100.091C128.087 97.1245 136.45 86.471 136.45 74.2598V52.9302L134.189 52.911C129.312 52.8697 124.506 51.7402 120.126 49.6054L115.579 47.3892Z" fill="url(#paint4_linear_2003_81)"/>
<path fill-rule="evenodd" clip-rule="evenodd" d="M118.148 61.0557C118.789 61.4834 118.963 62.35 118.535 62.9914L112.537 71.988H121.096C121.611 71.988 122.084 72.2713 122.327 72.7252C122.57 73.1791 122.543 73.7298 122.257 74.1581L114.813 85.3248C114.385 85.9662 113.519 86.1395 112.877 85.7119C112.236 85.2843 112.062 84.4176 112.49 83.7762L118.488 74.7797H109.929C109.415 74.7797 108.942 74.4963 108.699 74.0425C108.456 73.5886 108.482 73.0379 108.768 72.6096L116.212 61.4429C116.64 60.8015 117.507 60.6281 118.148 61.0557Z" fill="url(#paint5_linear_2003_81)"/>
<defs>
<linearGradient id="paint0_linear_2003_81" x1="114.562" y1="215.361" x2="144.104" y2="243.512" gradientUnits="userSpaceOnUse">
<stop stop-color="#EF7D22"/>
<stop offset="0.23" stop-color="#EF741D"/>
<stop offset="0.62" stop-color="#EE5A10"/>
<stop offset="1" stop-color="#EE3B00"/>
</linearGradient>
<linearGradient id="paint1_linear_2003_81" x1="30.0706" y1="191.361" x2="41.7608" y2="228.477" gradientUnits="userSpaceOnUse">
<stop stop-color="#EF7D22"/>
<stop offset="0.23" stop-color="#EF741D"/>
<stop offset="0.62" stop-color="#EE5A10"/>
<stop offset="1" stop-color="#EE3B00"/>
</linearGradient>
<linearGradient id="paint2_linear_2003_81" x1="116" y1="297.802" x2="116" y2="0.000540351" gradientUnits="userSpaceOnUse">
<stop stop-color="#6819CB"/>
<stop offset="0.875726" stop-color="#6863EB"/>
<stop offset="0.994792" stop-color="#6893FF"/>
</linearGradient>
<linearGradient id="paint3_linear_2003_81" x1="116.307" y1="241.711" x2="115.975" y2="306.287" gradientUnits="userSpaceOnUse">
<stop offset="0.322806" stop-color="#6852E3"/>
<stop offset="1" stop-color="#6893FF"/>
</linearGradient>
<linearGradient id="paint4_linear_2003_81" x1="93.406" y1="32.9258" x2="150.005" y2="36.3658" gradientUnits="userSpaceOnUse">
<stop offset="0.182684" stop-color="#88A9FF"/>
<stop offset="1" stop-color="#B9CDFF"/>
</linearGradient>
<linearGradient id="paint5_linear_2003_81" x1="93.406" y1="32.9258" x2="150.005" y2="36.3658" gradientUnits="userSpaceOnUse">
<stop offset="0.182684" stop-color="#88A9FF"/>
<stop offset="1" stop-color="#B9CDFF"/>
</linearGradient>
</defs>
</svg>
